<?xml version="1.0" encoding="UTF-8"?>
<svg id="Layer_1" data-name="Layer 1" xmlns="http://www.w3.org/2000/svg" viewBox="0 0 408.04 148.62">
  <defs>
    <style>
      .cls-1 {
        fill: white;
      }

      .cls-2, .cls-3 {
        fill: white;
      }

      .cls-3 {
        stroke: white;
        stroke-miterlimit: 10;
      }
    </style>
  </defs>
  <g>
    <path class="cls-2" d="m66.7,26.2c-6.36-2.69-12.31-6.42-18.94-8.35s-14.46-1.71-19.65,2.85c-2.71,2.37-4.43,5.7-5.45,9.15-.8,2.71-1.18,5.57-.89,8.38.41,3.96,2.13,7.65,3.82,11.26,1,2.13,2.02,4.28,3.54,6.06,2.2,2.57,5.29,4.17,8.24,5.83,5.79,3.26,11.32,6.98,16.53,11.1,3.91,3.1,7.69,6.49,10.39,10.69,3.89,6.06,5.25,13.36,6.53,20.44,1.08,5.96,2.14,12.23.24,17.98-.92,2.79-2.5,5.31-4.14,7.74-4.68,6.92-10.48,13.69-18.41,16.35-2.84.95-5.83,1.34-8.82,1.59-12.41,1.03-25.52-.42-35.95-7.22-.95-.62-1.92-1.33-2.37-2.37-.34-.79-.34-1.68-.34-2.54.04-5.94.07-11.87.11-17.81,6.42,6.57,15.85,9.02,24.77,11.19,3.7.9,7.52,1.81,11.28,1.21,4.07-.65,7.72-3.04,10.49-6.1,8.38-9.25,8.15-25.03-.5-34.03-2.31-2.4-5.06-4.31-7.81-6.19-5.6-3.83-11.25-7.61-17.27-10.75-3.81-1.99-7.84-3.76-10.9-6.78-2.22-2.19-3.82-4.92-5.16-7.74C1.79,49.15.04,38.8,2.07,29.04S10.15,10.24,18.88,5.43C25.62,1.71,33.56.64,41.24,1.07s15.2,2.29,22.67,4.15c.75.19,1.57.41,2.03,1.04.43.59.43,1.38.41,2.1-.13,5.89-.27,11.78-.4,17.66"/>
    <path class="cls-1" d="m67.2,25.34c-7.92-3.39-15.38-8.39-24.11-9.44-7.67-.92-15.38,1.65-19.31,8.64-2.1,3.73-3.26,8.23-3.1,12.52.17,4.53,2.04,8.69,3.94,12.73.92,1.97,1.85,3.95,3.17,5.69,1.24,1.64,2.8,2.95,4.5,4.09,3.65,2.44,7.62,4.38,11.31,6.77,3.9,2.53,7.67,5.25,11.25,8.22,3.39,2.81,6.61,5.91,8.91,9.69s3.67,8.09,4.66,12.41,1.88,8.86,2.4,13.32.42,9.31-1.61,13.58c-1.81,3.82-4.44,7.41-7.11,10.66s-5.44,6-8.86,8.14c-3.85,2.41-8.12,3.44-12.6,3.87-8.51.8-17.27.48-25.49-2-4.01-1.21-8.14-2.92-11.53-5.43-2.12-1.58-1.57-4.24-1.56-6.59.01-2.47.03-4.95.04-7.42s.03-4.95.04-7.42l-1.71.71c5.94,5.98,14.12,8.64,22.09,10.68,4.5,1.15,9.27,2.63,13.96,2.12,4.11-.45,7.83-2.5,10.79-5.34,5.22-5.01,7.77-12.32,7.53-19.48-.25-7.59-3.56-14.57-9.41-19.42-3.69-3.06-7.8-5.66-11.8-8.27s-8.17-5.1-12.46-7.28c-4.07-2.07-8.19-4.17-11-7.9s-4.51-7.97-5.82-12.24c-2.66-8.67-2.94-18.12.17-26.7,2.75-7.58,8.12-14.31,15.28-18.13C28.19,1.6,38.18,1.34,47.42,2.71c5,.74,9.92,1.92,14.82,3.13.84.21,2.39.31,2.9,1.11.58.9.17,2.84.15,3.87-.06,2.53-.12,5.07-.17,7.6s-.12,5.07-.17,7.6c-.03,1.29,1.97,1.29,2,0,.12-5.23.24-10.47.36-15.7.04-1.82.46-4.21-1.34-5.38-.68-.44-1.49-.62-2.26-.81-1.32-.33-2.65-.66-3.97-.97C50.33.91,40.63-.91,30.95.49,22.44,1.71,14.65,5.63,9.1,12.27S.84,26.5.31,34.69c-.58,9.01,1.7,18.35,6.05,26.25,2.17,3.94,5.12,6.99,8.99,9.28s8.25,4.28,12.24,6.69c4.3,2.6,8.48,5.41,12.6,8.28,3.59,2.5,7,5.23,9.26,9.04,3.78,6.36,4.38,14.43,1.9,21.36-1.28,3.59-3.47,6.82-6.37,9.31-3.69,3.17-8.15,4.47-12.97,3.87-4.51-.57-9.08-1.91-13.43-3.19-4.06-1.2-8.07-2.69-11.68-4.93-1.84-1.14-3.52-2.47-5.04-4.01-.61-.62-1.7-.16-1.71.71-.03,5.11-.06,10.22-.09,15.34-.01,2.01-.37,4.41.83,6.17,1.08,1.58,3.06,2.58,4.68,3.49,7.38,4.12,15.83,5.87,24.21,6.19s17.84-.05,25.12-4.88c3.29-2.18,6.12-4.99,8.61-8.03s5.13-6.62,7.03-10.28c4.31-8.31,2.14-17.75.4-26.46-.85-4.25-1.93-8.48-3.74-12.43s-4.53-7.46-7.71-10.48c-6.59-6.26-14.42-11.41-22.32-15.84-1.87-1.05-3.78-2.09-5.45-3.45s-2.98-3.15-4.01-5.11c-2.15-4.09-4.46-8.68-4.94-13.33s.75-9.48,3.15-13.37c2.16-3.5,5.53-5.78,9.52-6.68,8.72-1.96,17.04,2.27,24.62,6.01,2.02,1,4.05,1.98,6.13,2.87,1.17.5,2.19-1.22,1.01-1.73h0Z"/>
  </g>
  <g>
    <path class="cls-2" d="m86.19,72.32c1.05-22.83,1.32-45.69.8-68.53,10.64.03,21.28.06,31.91.08,2.49,0,5,.01,7.44.51,2.37.48,4.63,1.4,6.86,2.31,5.38,2.2,11.01,4.59,14.6,9.16,2.13,2.72,3.37,6.02,4.5,9.28,2.57,7.41,4.79,15.05,5.07,22.89s-1.52,15.97-6.3,22.19c-.68.88-1.45,1.74-2.48,2.15-.85.34-1.8.33-2.72.31-6.21-.1-12.41-.2-18.62-.3-.06-1.46-.12-2.91-.18-4.37,7.59-4.38,13.65-12.1,14.23-20.85.28-4.29-.74-8.56-2.1-12.64-.65-1.94-1.39-3.86-2.47-5.6-3.04-4.86-8.55-7.74-14.17-8.87s-11.42-.7-17.13-.28c-.72,16.2-.68,32.43.14,48.63.03.53.08,1.12.47,1.48.4.37,1.01.37,1.56.35,5.56-.22,11.11-.43,16.67-.65,1.04-.04,2.37-.31,2.56-1.33-.05,1.47-.17,2.93-.34,4.38-12.91-.1-25.82-.2-38.73-.3-.71,0-1.7-.32-1.56-1.02"/>
    <path class="cls-1" d="m87.19,72.32c.81-17.78,1.16-35.58,1.03-53.38-.04-5.05-.11-10.1-.23-15.15l-1,1c10.14.03,20.28.05,30.42.08,2.47,0,4.97-.06,7.43.27,2.3.31,4.49,1.07,6.64,1.92,3.85,1.53,7.78,3.09,11.22,5.44,3.74,2.55,6.08,6.08,7.69,10.26,1.69,4.38,3.13,8.91,4.24,13.47,2.13,8.71,2.74,18.04-.55,26.56-.85,2.21-1.99,4.33-3.38,6.26-.71.98-1.53,2.12-2.74,2.48s-2.59.15-3.8.13c-5.63-.09-11.27-.18-16.9-.27l1,1c-.06-1.46-.12-2.91-.18-4.37l-.5.86c8.47-4.96,15.11-13.85,14.75-24.01-.11-3.01-.74-5.98-1.61-8.85-.82-2.72-1.76-5.53-3.34-7.92-2.69-4.08-7-6.77-11.59-8.24-6.57-2.09-13.61-1.58-20.37-1.08-.56.04-.97.43-1,1-.47,10.58-.61,21.17-.43,31.76.09,5.29.26,10.59.52,15.88.08,1.76.24,3.63,2.4,3.82,2.45.21,5.07-.16,7.53-.26,2.86-.11,5.72-.22,8.58-.33,1.79-.07,4.11-.04,4.75-2.11l-1.96-.27c-.06,1.47-.17,2.93-.34,4.38l1-1c-3.45-.03-39.29-.33-39.29-.32.02-1.29-1.98-1.29-2,0-.02,1.12.85,1.74,1.87,1.94,1.63.33,3.5.1,5.16.11,3.81.03,7.61.06,11.42.09,7.61.06,15.23.12,22.84.18.59,0,.94-.47,1-1,.17-1.46.28-2.92.34-4.38.05-1.15-1.64-1.32-1.96-.27-.19.62-1.32.58-1.84.61-1.23.06-2.45.09-3.68.14-2.21.09-4.41.17-6.62.26-1.14.04-2.29.09-3.43.13-.93.04-2.35.39-3.23.1-.81-.27-.55-2.06-.59-2.81-.06-1.24-.11-2.48-.16-3.72-.35-9.09-.47-18.2-.34-27.3.07-5.21.23-10.42.46-15.63l-1,1c9.89-.74,21.97-1.44,29.13,6.87,1.68,1.95,2.71,4.31,3.54,6.72.91,2.66,1.7,5.41,2.06,8.21.61,4.81-.31,9.54-2.69,13.77-2.55,4.53-6.43,8.18-10.89,10.8-.29.17-.51.52-.5.86.06,1.46.12,2.91.18,4.37.02.55.44.99,1,1,5.39.09,10.78.17,16.17.26,2.12.03,4.62.42,6.48-.85,1.67-1.14,2.87-3.09,3.88-4.8,4.71-7.96,5.35-17.58,3.94-26.54-.8-5.12-2.26-10.12-3.91-15.02-1.45-4.3-2.96-8.75-6.05-12.19-2.9-3.22-6.81-5.31-10.72-7.02-4.32-1.89-8.7-3.83-13.45-4.21-2.87-.23-5.78-.13-8.66-.14l-9.47-.02c-6.15-.02-12.3-.03-18.45-.05-.53,0-1.01.46-1,1,.4,17.8.33,35.6-.22,53.39-.16,5.05-.35,10.09-.58,15.14-.06,1.29,1.94,1.28,2,0h0Z"/>
  </g>
  <rect class="cls-3" x="86.64" y="100.89" width="18" height="43"/>
  <rect class="cls-3" x="168.64" y="3.89" width="17" height="69"/>
  <rect class="cls-3" x="181.64" y="63.89" width="43" height="9"/>
  <rect class="cls-3" x="181.64" y="3.89" width="43" height="17"/>
  <rect class="cls-3" x="168.14" y="100.39" width="21" height="43"/>
  <rect class="cls-3" x="185.14" y="126.39" width="44" height="17"/>
  <rect class="cls-3" x="245.64" y="3.89" width="17" height="69"/>
  <rect class="cls-3" x="258.64" y="63.89" width="43" height="9"/>
  <rect class="cls-3" x="258.64" y="3.89" width="43" height="17"/>
  <rect class="cls-3" x="245.14" y="100.39" width="21" height="43"/>
  <rect class="cls-3" x="262.14" y="126.39" width="44" height="17"/>
  <rect class="cls-3" x="319.14" y="3.39" width="19" height="69"/>
  <rect class="cls-3" x="319.14" y="100.39" width="19" height="43"/>
  <g>
    <path class="cls-2" d="m339.36,5.05c12.75-.87,26.37-1.54,37.43,4.85,3.06,1.77,5.8,4.02,8.53,6.27,2.24,1.84,4.48,3.68,6.43,5.83,5.93,6.53,8.65,15.36,10.13,24.06,1.92,11.26,2.03,22.75,1.51,34.15-.48,10.34-1.5,20.76-4.84,30.55s-9.21,18.99-17.79,24.77c-11.71,7.9-26.75,8.55-40.87,7.96-.77-.03-1.63-.12-2.11-.72-.38-.49-.38-1.16-.35-1.78.16-4.51.31-9.02.47-13.53,3.58-.71,7.27-.12,10.92-.05,12.28.24,24.52-5.9,31.67-15.88,3.58-5,5.89-10.79,7.94-16.59,1.88-5.35,3.58-10.84,4.01-16.5.87-11.39-3.41-22.53-8.49-32.76-4.86-9.79-11.47-19.94-21.93-23.11-7.96-2.41-16.61-.25-24.81-1.65-.69-.12-1.43-.29-1.89-.82-.47-.54-.53-1.31-.57-2.02-.16-2.78-.3-5.63.52-8.29s2.82-5.14,5.55-5.71"/>
    <path class="cls-1" d="m339.36,6.05c7.42-.5,14.95-.97,22.35.02,3.59.48,7.15,1.33,10.51,2.7,3.69,1.5,6.98,3.74,10.08,6.22s6.37,5.01,9.03,8.03c2.39,2.71,4.24,5.87,5.67,9.18,3.06,7.09,4.31,14.95,5.03,22.59.8,8.53.76,17.12.36,25.66s-1.13,16.6-3.19,24.65c-3.54,13.82-11.46,26.83-24.86,32.86-6.64,2.99-13.99,4.17-21.22,4.55-3.71.19-7.42.18-11.13.06-.8-.03-1.62,0-2.41-.09-1.39-.16-1.13-1.34-1.09-2.45.07-2.09.14-4.19.22-6.28s.14-4.19.22-6.28l-.73.96c3.66-.67,7.36-.04,11.04,0,2.93.03,5.87-.31,8.72-.95,5.63-1.27,10.97-3.8,15.55-7.31,4.84-3.71,8.59-8.47,11.35-13.89,3.14-6.16,5.55-12.96,7.23-19.66s1.89-13.41.57-20.16-3.88-13.08-6.82-19.22c-4.75-9.93-11.01-20.79-21.78-25.02-7.25-2.85-15.12-1.45-22.69-1.85-.92-.05-1.85-.12-2.76-.24-.74-.1-2.12-.1-2.6-.81s-.29-2.27-.32-3.09c-.03-.93-.05-1.86,0-2.79.19-3.49,1.65-7.47,5.42-8.39,1.25-.3.72-2.23-.53-1.93-6.63,1.61-7.19,9.41-6.8,14.97.08,1.18.27,2.39,1.32,3.12,1.11.78,2.67.83,3.97.97,3.54.39,7.11.24,10.67.19,6.54-.1,12.82.47,18.37,4.22,4.81,3.25,8.44,8.03,11.4,12.95,3.29,5.48,6.1,11.36,8.32,17.35,2.39,6.45,4,13.27,3.72,20.19s-2.74,14.28-5.29,20.99c-2.33,6.16-5.29,12.15-9.92,16.92s-10.6,8.29-17.03,10.09c-3.15.88-6.4,1.35-9.68,1.36-4.01,0-7.97-.65-11.96.08-.44.08-.72.55-.73.96-.16,4.51-.39,9.02-.47,13.53-.03,1.61.51,2.95,2.19,3.36s3.7.24,5.44.27c7.66.15,15.44-.2,22.9-2.06s14.06-5.19,19.52-10.37,9.07-11.21,11.78-17.85c3.21-7.86,4.7-16.32,5.49-24.74.84-8.96,1.12-18.03.78-27.02-.33-8.42-1.2-17-3.56-25.11-2.21-7.59-5.97-14.28-11.96-19.51-3.16-2.76-6.44-5.52-9.95-7.83-3.26-2.14-6.86-3.71-10.62-4.74-7.51-2.06-15.42-2.08-23.14-1.7-1.98.1-3.96.23-5.93.36-1.28.09-1.29,2.09,0,2h0Z"/>
  </g>
  <path class="cls-2" d="m388.21,59.52c.68,10.36.84,20.74.48,31.11-.04,1.12,1.7,1.37,1.96.27,1.85-7.69,2.52-15.62,1.95-23.51-.09-1.29-1.89-1.28-2,0-.17,2.04-.03,4.04.4,6.04.21.96,1.71.94,1.93,0,3.17-13.7,3.05-27.92,3.48-41.9l-1.5.86c5.43,3.43,7.79,9.73,8.8,15.79.61,3.62.83,7.31,1.14,10.97s.61,7.43.82,11.15c.42,7.29.65,14.68-.21,21.94-.84,7.05-3.18,13.7-6.17,20.11s-6.5,12.81-12,17.46l1.41,1.41c9.14-10.2,14.76-23.19,15.95-36.83l-1.96.27c.29,1.79.01,3.58-.79,5.2l1.86.5c.1-2.25.37-4.46.82-6.66h-1.93c.29,1.94.23,3.9-.15,5.82l1.93.53c.81-4.1,1.61-8.2,2.42-12.29l-1.96-.27c-.59,4.88-1.6,9.69-3,14.39l1.96.27c.43-5.28.58-10.58.45-15.88h-2c.1.84.36,1.5,1.04,2.04.52.41,1.18.38,1.57-.2.71-1.05,1.17-2.18,1.38-3.43h-1.93c.34,1.27.15,2.59-.67,3.65l1.71.71c-.19-2.97.12-5.88.95-8.74l-1.96-.27c-.09,1.22-.18,2.45-.27,3.67h2c.13-12.67.21-25.5-2.92-37.87-.32-1.26-2.17-.72-1.93.53l.81,4.26c.24,1.27,2.16.73,1.93-.53l-.68-3.71-1.83.77.77,1.31c.65,1.11,2.36.11,1.73-1.01-1.65-2.91-2.11-6.4-4.24-9.06s-5.38-3.94-8.47-5.11c-1.2-.46-1.73,1.47-.53,1.93,2.91,1.1,6.08,2.33,7.88,5.03,1.67,2.51,2.15,5.61,3.63,8.22l1.73-1.01-.77-1.31c-.6-1.02-2.03-.31-1.83.77l.68,3.71,1.93-.53-.81-4.26-1.93.53c3.09,12.2,2.99,24.84,2.85,37.33-.01,1.3,1.91,1.27,2,0s.18-2.45.27-3.67c.08-1.15-1.66-1.32-1.96-.27-.87,3.02-1.21,6.14-1.02,9.27.05.76,1.13,1.45,1.71.71,1.27-1.64,1.73-3.57,1.19-5.59-.24-.9-1.76-1.01-1.93,0-.19,1.1-.55,2.03-1.18,2.96l1.57-.2c-.24-.13-.4-.34-.45-.63-.15-1.24-2.03-1.32-2,0,.13,5.3-.01,10.6-.45,15.88-.09,1.15,1.65,1.31,1.96.27,1.45-4.88,2.46-9.87,3.07-14.93.13-1.11-1.75-1.37-1.96-.27-.81,4.1-1.61,8.2-2.42,12.29-.25,1.26,1.68,1.8,1.93.53.46-2.3.5-4.56.15-6.88-.15-.98-1.74-.93-1.93,0-.48,2.37-.78,4.77-.89,7.19-.04.97,1.43,1.4,1.86.5,1.05-2.15,1.37-4.38.99-6.74-.19-1.19-1.87-.78-1.96.27-1.14,13.08-6.6,25.64-15.37,35.42-.87.97.44,2.24,1.41,1.41,5.05-4.27,8.51-10.01,11.38-15.89,3.17-6.5,5.88-13.27,7.02-20.45,1.2-7.61,1.05-15.41.65-23.09s-.84-15.24-1.9-22.74c-1-7.08-3.61-14.4-9.94-18.39-.66-.42-1.48.13-1.5.86-.42,13.79-.28,27.85-3.41,41.37h1.93c-.39-1.82-.48-3.65-.32-5.5h-2c.56,7.72-.07,15.45-1.88,22.98l1.96.27c.36-10.37.2-20.76-.48-31.11-.08-1.28-2.08-1.29-2,0h0Z"/>
  <path class="cls-1" d="m98.01,82.18c.19,2.11.99,4,1.88,5.9.94,2.01,1.89,4.03,2.83,6.04.35.74,1.71.6,1.83-.24.55-3.78,1.28-7.61,3.29-10.91l-1.57.2c1.45,1.59,1.88,3.77,2.49,5.77.7,2.26,1.8,4.08,3.26,5.94.49.62,1.48.21,1.67-.44,1.11-3.77,2.22-7.54,3.33-11.31.36-1.24-1.57-1.77-1.93-.53-1.11,3.77-2.22,7.54-3.33,11.31l1.67-.44c-.74-.95-1.47-1.91-1.99-3-.46-.97-.75-2.02-1.05-3.04-.6-2.04-1.25-4.06-2.71-5.66-.44-.49-1.25-.33-1.57.2-2.1,3.46-2.92,7.44-3.49,11.39l1.83-.24c-.85-1.82-1.71-3.64-2.56-5.46s-1.7-3.52-1.88-5.47c-.11-1.27-2.11-1.28-2,0h0Z"/>
  <path class="cls-1" d="m136.59,94.24c-.07-4.07-.03-8.14.12-12.2l-1,1c1.8-.05,3.59.08,5.36.4.53.1,1.08-.15,1.23-.7.13-.49-.16-1.13-.7-1.23-1.94-.36-3.91-.52-5.89-.47-.56.01-.98.45-1,1-.15,4.07-.2,8.14-.12,12.2.02,1.29,2.02,1.29,2,0h0Z"/>
  <path class="cls-1" d="m136.3,89.56c1.47-.1,2.94-.11,4.4-.04.52.03,1.02-.48,1-1-.03-.56-.44-.97-1-1-1.47-.07-2.94-.06-4.4.04-.52.04-1.03.43-1,1,.02.51.44,1.04,1,1h0Z"/>
  <path class="cls-1" d="m136.29,96.03h5.06c.52,0,1.02-.46,1-1s-.44-1-1-1h-5.06c-.52,0-1.02.46-1,1s.44,1,1,1h0Z"/>
  <path class="cls-1" d="m167.76,82.14c-1.11-1.43-3.15-1.84-4.74-1-1.73.92-2.28,2.88-1.85,4.7.2.85.55,1.79,1.37,2.22.76.39,1.62.42,2.38.87.69.42,1.26,1.03,1.56,1.79.26.68.37,1.64-.13,2.24-1.29,1.54-3.4-.03-4.34-1.11-.85-.97-2.26.45-1.41,1.41,1.13,1.3,2.75,2.42,4.55,2.28s3.29-1.36,3.5-3.22-.66-3.55-2.05-4.65c-.7-.55-1.51-.96-2.37-1.19-.34-.09-.7-.06-.87-.38-.2-.37-.3-.88-.33-1.29-.06-.83.3-1.64,1.1-1.98.85-.36,1.7.05,2.22.73.33.43,1.07.35,1.41,0,.42-.42.33-.99,0-1.41h0Z"/>
  <path class="cls-1" d="m185.76,83.31c2.87.07,5.73,0,8.59-.19.54-.04,1-.43,1-1,0-.51-.46-1.04-1-1-2.86.2-5.73.26-8.59.19-1.29-.03-1.29,1.97,0,2h0Z"/>
  <path class="cls-1" d="m189.14,82.91c-.37,3.87-.33,7.76.11,11.62.06.54.42,1,1,1,.49,0,1.06-.46,1-1-.44-3.86-.48-7.75-.11-11.62.05-.54-.5-1-1-1-.58,0-.95.46-1,1h0Z"/>
  <path class="cls-1" d="m239.21,82.05c-.16,0-.36-.33-.48-.44-.27-.26-.55-.51-.9-.67-.91-.42-1.98-.14-2.82.32-1.66.91-2.49,2.77-2.18,4.61.15.9.62,1.8,1.33,2.38.79.63,1.69.5,2.59.81.72.25,1.36.74,1.78,1.37.54.81.57,1.45-.12,2.15-.63.64-1.47,1.21-2.4,1.23-.75,0-1.54-.4-1.76-1.15-.36-1.23-2.29-.71-1.93.53.54,1.85,2.46,2.84,4.31,2.56s4-1.82,4.3-3.7-1.3-3.86-2.97-4.64c-.43-.2-.87-.36-1.33-.44-.44-.08-.94-.03-1.29-.33-.64-.56-.73-1.71-.43-2.45.26-.64,1.21-1.64,2.01-1.45.32.07.6.54.84.74.42.36.87.57,1.43.58,1.29.01,1.29-1.99,0-2h0Z"/>
  <path class="cls-1" d="m261.04,94.59c.47-3.98.6-7.98.38-11.98-.07-1.28-2.07-1.29-2,0,.22,4,.1,8-.38,11.98-.06.54.51,1,1,1,.59,0,.94-.46,1-1h0Z"/>
  <path class="cls-1" d="m281.88,94.16c0-1.93.02-3.86.06-5.78.02-.94.04-1.89.07-2.83.01-.47.03-.94.04-1.42,0-.24.02-.47.02-.71,0-.12,0-.24.01-.35,0-.26,0-.31,0-.18l-.36.36c-.18.03-.13.04.13.02.15,0,.31,0,.46,0,.23,0,.46.01.69.03.53.03,1.07.08,1.6.16.84.11,1.72.26,2.47.68s1.2.98,1.37,1.81c.19.93.23,1.94.15,2.89-.13,1.61-.89,3.25-2.42,3.95s-3.42.45-5.05.26c-.54-.06-1,.5-1,1,0,.59.46.94,1,1,2.39.27,5.03.42,7.03-1.15s2.64-4.45,2.42-6.98c-.12-1.32-.33-2.58-1.27-3.58-.83-.89-2.01-1.39-3.18-1.64-1.38-.3-2.85-.45-4.26-.43-.64.01-1.25.14-1.58.75s-.21,1.56-.24,2.24c-.11,3.3-.16,6.61-.16,9.91,0,1.29,2,1.29,2,0h0Z"/>
  <path class="cls-1" d="m316.49,93.46c-2.11.04-4.23.02-6.34-.05l1,1,.18-5.92.09-2.9.05-1.51c0-.29-.06-1.08.06-1.24l-.36.36.16-.07-.5.14c2.02-.25,4.09-.3,6.13-.44,1.28-.09,1.29-2.09,0-2-1.65.12-3.31.23-4.96.35-.75.05-1.71-.04-2.19.65-.45.65-.32,1.62-.34,2.37-.1,3.4-.21,6.8-.31,10.21-.02.55.47.98,1,1,2.11.08,4.22.09,6.34.05,1.29-.02,1.29-2.02,0-2h0Z"/>
  <path class="cls-1" d="m310.58,89.2c1.71-.09,3.43-.14,5.14-.15.52,0,1.02-.46,1-1s-.44-1-1-1c-1.71,0-3.43.06-5.14.15-.52.03-1.03.44-1,1,.02.52.44,1.03,1,1h0Z"/>
  <path class="cls-1" d="m310.65,95.39c1.92.14,3.85.08,5.76-.16.52-.07,1.03-.41,1-1-.02-.49-.44-1.07-1-1-1.91.24-3.84.3-5.76.16-.52-.04-1.02.49-1,1,.03.57.44.96,1,1h0Z"/>
</svg>